<svg width="31" height="30" viewBox="0 0 31 30" fill="none" xmlns="http://www.w3.org/2000/svg">
<g clip-path="url(#clip0_358_468)">
<path d="M30.0255 14.5376C30.0255 6.50872 23.5167 0 15.4878 0C7.45891 0 0.950195 6.50872 0.950195 14.5376C0.950195 21.7937 6.26637 27.8081 13.2163 28.8987V18.7399H9.52513V14.5376H13.2163V11.3348C13.2163 7.69132 15.3867 5.67876 18.7074 5.67876C20.2975 5.67876 21.9616 5.9627 21.9616 5.9627V9.54032H20.1285C18.3227 9.54032 17.7593 10.661 17.7593 11.8118V14.5376H21.7913L21.1467 18.7399H17.7593V28.8987C24.7093 27.8081 30.0255 21.7937 30.0255 14.5376Z" fill="#1877F2"/>
<path d="M21.147 18.7408L21.7915 14.5386H17.7596V11.8128C17.7596 10.6631 18.3229 9.54125 20.1288 9.54125H21.9619V5.96363C21.9619 5.96363 20.2983 5.67969 18.7077 5.67969C15.387 5.67969 13.2166 7.69224 13.2166 11.3357V14.5386H9.52539V18.7408H13.2166V28.8996C14.7218 29.1351 16.2544 29.1351 17.7596 28.8996V18.7408H21.147Z" fill="white"/>
</g>
<defs>
<clipPath id="clip0_358_468">
<rect width="29.0753" height="29.0753" fill="white" transform="translate(0.950195)"/>
</clipPath>
</defs>
</svg>
