<svg width="206" height="126" viewBox="0 0 206 126" fill="none" xmlns="http://www.w3.org/2000/svg">
<g clip-path="url(#clip0_1664_257)">
<path d="M0.97168 51.8839L7.97535 47.4663L15.0032 43.0729C17.3377 41.6058 19.6965 40.1628 22.0471 38.7118L29.0991 34.3586L29.7753 33.9395L30.3871 34.5441L34.7826 38.8972L33.2932 38.6956L39.5402 34.7133C41.6252 33.3752 43.7263 32.0692 45.8113 30.7553L46.5278 30.3119L47.3328 30.715L57.2346 35.7532C58.9331 36.5836 60.5432 37.4542 62.1532 38.3006L67.0799 40.856H65.2687L70.9037 37.6315C72.7876 36.5514 74.6713 35.4551 76.5389 34.407L77.4486 33.9395L78.3421 34.2942L83.0193 36.1483L81.2402 36.2773L89.6204 31.384L90.9004 30.6344L92.0275 31.6259L99.7074 38.3329L97.1313 38.1716L113.602 27.1035L117.699 24.3385L121.837 21.6058L130.105 16.1321L131.111 15.4631L132.109 16.0757L135.82 18.3571L133.574 18.6634C135.015 17.172 136.473 15.7049 137.929 14.2378L138.911 13.2543L140.039 13.9315L143.582 16.0273L141.513 16.3659L154.553 1.96044L155.704 0.710938L156.767 2.01686L171.258 19.663L169.808 19.4292L177.36 14.8988L178.06 14.4796L178.567 15.06L183.961 21.2349L183.767 21.0898L194.321 26.6924L204.843 32.3353L193.991 27.3373L183.164 22.2829L183.076 22.2426L182.979 22.1377L177.166 16.3578L178.374 16.511L171 21.3477L170.195 21.8718L169.543 21.122L154.53 3.93544H156.751L143.984 18.5908L143.114 19.5824L141.922 18.9213L138.34 16.9221L140.449 16.6239C139.048 18.1501 137.638 19.6657 136.215 21.1704L135.241 22.2184L133.977 21.4767L130.217 19.2519H132.19L124.043 24.8947L119.962 27.7162L115.864 30.5134L99.5061 41.6702L98.1537 42.6295L96.9301 41.5009L89.2985 34.7537L91.7135 34.9874L83.301 39.8242L82.4317 40.316L81.4736 39.9531L76.8126 38.0668L78.5514 37.954C76.6597 39.01 74.7437 40.0338 72.8358 41.0818L67.1041 44.1934L66.1783 44.7012L65.3169 44.2418L60.4868 41.5655C58.8768 40.6707 57.2667 39.7919 55.6567 38.881L45.9964 33.4558H47.5099C45.3685 34.6891 43.2353 35.9386 41.0697 37.1559L34.6296 40.8319L33.7682 41.3236L33.1403 40.6383L28.9542 36.0435L30.2422 36.2289L22.997 40.195C20.5819 41.509 18.1669 42.8471 15.7518 44.1531L8.29737 48.0064L0.97168 51.8839Z" fill="#2A2A2A"/>
<path d="M19.8895 67.4744V98.865H16.6695V70.7392H11.4369V98.865H8.2168V67.4744H19.8895Z" fill="#2A2A2A"/>
<path d="M42.9622 83.2266C42.9769 85.1814 42.8802 87.1354 42.6724 89.0791C42.5083 90.5289 42.2391 91.9649 41.8673 93.3757C41.6093 94.4039 41.2226 95.3952 40.7162 96.3262C40.3481 97.0128 39.8694 97.6337 39.2993 98.1641C38.8358 98.5878 38.2867 98.9067 37.6893 99.0992C36.6077 99.4433 35.4461 99.4433 34.3646 99.0992C33.7691 98.9024 33.2208 98.5841 32.7545 98.1641C32.1776 97.6361 31.686 97.0214 31.2974 96.3423C30.7958 95.4195 30.4143 94.436 30.1624 93.4161C29.7846 92.0039 29.5154 90.5647 29.3573 89.1113C29.153 87.162 29.059 85.2026 29.0756 83.2427C29.0261 80.5023 29.2308 77.7631 29.6874 75.0605C29.9689 73.3535 30.5119 71.7002 31.2974 70.1593C31.7863 69.148 32.5656 68.3059 33.5353 67.7409C34.2969 67.3282 35.149 67.1121 36.0148 67.1121C36.8807 67.1121 37.7328 67.3282 38.4944 67.7409C39.4641 68.3059 40.2434 69.148 40.7323 70.1593C41.5213 71.6988 42.0645 73.3526 42.3423 75.0605C42.8011 77.7575 43.0086 80.4913 42.9622 83.2266ZM39.3235 83.2266V81.163C39.3235 80.3004 39.3235 79.3975 39.2591 78.4463C39.1947 77.495 39.1463 76.5519 39.0176 75.5926C38.913 74.718 38.7299 73.8546 38.4702 73.013C38.2786 72.3318 37.9529 71.6959 37.5121 71.1427C37.3334 70.9193 37.1068 70.7387 36.849 70.6147C36.5913 70.4908 36.3089 70.4264 36.0229 70.4264C35.7369 70.4264 35.4546 70.4908 35.1968 70.6147C34.939 70.7387 34.7123 70.9193 34.5336 71.1427C34.0929 71.6959 33.7672 72.3318 33.5756 73.013C33.316 73.8546 33.1327 74.718 33.0282 75.5926C32.9048 76.5492 32.8242 77.5004 32.7867 78.4463C32.7465 79.3975 32.7304 80.3004 32.7304 81.163V85.3547C32.7304 86.1931 32.7545 87.088 32.8029 88.0392C32.8431 88.9823 32.9316 89.9336 33.0604 90.8928C33.1626 91.7686 33.3487 92.6324 33.6158 93.4725C33.8192 94.1521 34.1498 94.7868 34.5899 95.3426C34.7674 95.5678 34.9938 95.7494 35.2518 95.8737C35.5099 95.9981 35.7929 96.0617 36.0793 96.0602C36.3647 96.063 36.6468 95.9997 36.9038 95.8752C37.1608 95.7507 37.3855 95.5685 37.5605 95.3426C37.993 94.7656 38.3124 94.112 38.5024 93.4161C38.7609 92.5751 38.9389 91.7113 39.0336 90.8364C39.1463 89.8798 39.2268 88.9286 39.2752 87.9828C39.3235 87.0315 39.3396 86.1367 39.3315 85.2983C39.3235 84.46 39.3235 83.7829 39.3235 83.2266Z" fill="#2A2A2A"/>
<path d="M57.2353 79.5266L53.8219 98.8736H50.7227L56.8569 66.161C56.8958 66.0443 56.9499 65.9331 57.0179 65.8305C57.049 65.7798 57.0928 65.7382 57.1452 65.7099C57.1975 65.6816 57.2563 65.6676 57.3158 65.6693C57.377 65.6621 57.439 65.6737 57.4936 65.7025C57.5482 65.7313 57.5928 65.7759 57.6217 65.8305C57.6217 65.9353 57.7102 66.0482 57.7505 66.161L63.9652 98.8736H60.7451L57.2353 79.5266Z" fill="#2A2A2A"/>
<path d="M71.5322 80.9618C71.5312 79.3811 71.784 77.8107 72.281 76.3104C72.7638 74.819 73.4724 73.4107 74.382 72.1347C75.2923 70.8617 76.3951 69.7385 77.6504 68.8054C78.9177 67.8618 80.3398 67.147 81.8526 66.6934V98.8658H78.6326V93.3036L78.1415 93.0133L75.3078 98.8658H71.7577L75.5735 91.119C74.325 89.732 73.3254 88.1392 72.619 86.4111C71.9004 84.6846 71.531 82.8323 71.5322 80.9618ZM74.6557 81.2761C74.6599 82.0561 74.7572 82.8328 74.9456 83.5897C75.133 84.379 75.4029 85.1463 75.7506 85.8791C76.1022 86.6143 76.5283 87.3112 77.0225 87.9589C77.4855 88.582 78.0266 89.1429 78.6326 89.6276V72.3201C78.0286 72.8762 77.4886 73.498 77.0225 74.1742C76.5311 74.8721 76.1103 75.6175 75.7667 76.399C75.4222 77.1777 75.1526 77.9875 74.9616 78.8175C74.7654 79.6225 74.6628 80.4475 74.6557 81.2761Z" fill="#2A2A2A"/>
<path d="M100.248 98.865V83.3148H94.9749V98.865H91.7549V67.4744H94.9749V80.187H100.248V67.4744H103.468V98.865H100.248Z" fill="#2A2A2A"/>
<path d="M121.886 98.8653L120.565 91.8923H116.266L114.979 98.8653H111.887L118.013 66.1527C118.056 66.0373 118.109 65.9265 118.175 65.8222C118.206 65.7715 118.249 65.7299 118.302 65.7016C118.354 65.6733 118.413 65.6592 118.472 65.661C118.533 65.6539 118.596 65.6653 118.65 65.6941C118.705 65.7229 118.749 65.7676 118.778 65.8222C118.826 65.9269 118.866 66.0399 118.907 66.1527L125.122 98.8653H121.886ZM118.392 79.5183L116.894 88.7646H119.985L118.392 79.5183Z" fill="#2A2A2A"/>
<path d="M157.565 67.4744V98.865H154.344V70.7392H149.096V98.865H145.876V67.4744H157.565Z" fill="#2A2A2A"/>
<path d="M167.426 98.8658V67.4752H170.606V79.1802L178.882 66.3789V98.8658H175.661V77.2939L170.614 85.3551V98.9303L167.426 98.8658Z" fill="#2A2A2A"/>
<path d="M199.813 67.4744L194.564 82.0813L199.813 98.865H196.375L191.907 84.3143V98.865H188.688V67.4744H191.907V79.8967L196.286 67.4744H199.813Z" fill="#2A2A2A"/>
<path d="M205.866 106.443H1.27832V58.6233H205.866V106.443ZM2.58246 105.177H204.643V59.889H2.58246V105.177Z" fill="#2A2A2A"/>
<path d="M2.58246 118.302V124.912H1.27832V117.052H5.73813V118.302H2.58246Z" fill="#2A2A2A"/>
<path d="M17.0162 120.881C17.0282 121.992 16.5997 123.061 15.8247 123.855C15.4598 124.262 15.0126 124.585 14.5129 124.805C14.0131 125.024 13.4724 125.135 12.9267 125.129C12.3873 125.136 11.8524 125.031 11.3552 124.821C10.8579 124.612 10.4091 124.302 10.0366 123.912C9.65144 123.529 9.34735 123.073 9.14261 122.57C8.93787 122.067 8.83671 121.529 8.84522 120.986C8.83998 119.889 9.26156 118.834 10.0205 118.043C10.3765 117.644 10.8136 117.327 11.3023 117.111C11.7911 116.896 12.3203 116.788 12.8542 116.793C13.3974 116.79 13.9356 116.897 14.4365 117.108C14.9372 117.318 15.3903 117.628 15.7684 118.019C16.1635 118.383 16.4786 118.826 16.6934 119.318C16.9082 119.81 17.0182 120.343 17.0162 120.881ZM10.2379 120.978C10.2338 121.347 10.3028 121.714 10.441 122.057C10.5792 122.401 10.7837 122.713 11.0429 122.976C11.2866 123.241 11.5847 123.451 11.9168 123.59C12.2489 123.73 12.6071 123.796 12.9669 123.782C13.3268 123.796 13.6852 123.731 14.0174 123.592C14.3495 123.452 14.6476 123.243 14.8909 122.976C15.3927 122.425 15.6708 121.707 15.6708 120.961C15.6708 120.215 15.3927 119.497 14.8909 118.946C14.6426 118.68 14.3402 118.47 14.0041 118.331C13.668 118.193 13.3062 118.127 12.9428 118.14C12.5853 118.127 12.2294 118.193 11.8998 118.332C11.5703 118.471 11.2751 118.681 11.0349 118.946C10.5139 119.493 10.2277 120.222 10.2379 120.978Z" fill="#2A2A2A"/>
<path d="M26.7323 122.291H28.1974C27.9826 123.129 27.4875 123.868 26.7945 124.384C26.1016 124.9 25.2528 125.164 24.3897 125.129C23.8475 125.146 23.3079 125.049 22.8058 124.842C22.3037 124.637 21.8504 124.328 21.4755 123.936C20.7321 123.129 20.3193 122.072 20.3193 120.973C20.3193 119.875 20.7321 118.818 21.4755 118.011C21.8614 117.625 22.3215 117.322 22.8281 117.12C23.3345 116.917 23.8768 116.82 24.422 116.834C25.2589 116.811 26.0799 117.065 26.7564 117.559C27.4258 118.075 27.9204 118.784 28.1733 119.591H26.7323C26.5345 119.123 26.1948 118.73 25.7613 118.467C25.3279 118.204 24.8226 118.083 24.3173 118.123C23.9656 118.111 23.6157 118.176 23.2925 118.316C22.9695 118.456 22.6815 118.665 22.4496 118.929C21.9661 119.482 21.705 120.195 21.717 120.929C21.6978 121.669 21.9595 122.389 22.4496 122.945C22.6844 123.227 22.9804 123.452 23.3152 123.603C23.65 123.754 24.0148 123.827 24.3817 123.814C24.8874 123.862 25.3943 123.737 25.8206 123.461C26.2471 123.184 26.5683 122.773 26.7323 122.291Z" fill="#2A2A2A"/>
<path d="M34.783 124.912H33.3985V118.302H31.2812V117.052H36.9164V118.302H34.783V124.912Z" fill="#2A2A2A"/>
<path d="M41.6252 124.912H40.3613V117.052H41.6977V122.872L45.9642 117.052H47.2362V124.912H45.8918V119.067L41.6252 124.912Z" fill="#2A2A2A"/>
<path d="M52.7514 121.542V124.912H51.415V117.052H52.7514V120.341H56.5591V117.052H57.8955V124.912H56.5591V121.542H52.7514Z" fill="#2A2A2A"/>
<path d="M63.3613 124.912H62.1055V117.052H63.4338V122.872L67.7084 117.052H68.9723V124.912H67.6279V119.067L63.3613 124.912Z" fill="#2A2A2A"/>
<path d="M78.8016 124.912H77.4491V121.558C76.788 121.809 76.0871 121.937 75.3802 121.937C74.7724 121.959 74.1746 121.777 73.6817 121.422C73.4271 121.251 73.2199 121.019 73.079 120.747C72.9383 120.475 72.8687 120.172 72.8766 119.865V117.052H74.2291V119.551C74.2063 119.714 74.2219 119.882 74.2746 120.039C74.3273 120.196 74.4155 120.339 74.5325 120.456C74.6495 120.573 74.792 120.662 74.9489 120.715C75.1057 120.767 75.2726 120.783 75.4365 120.76C76.1462 120.777 76.8497 120.624 77.4894 120.317V117.052H78.8176L78.8016 124.912Z" fill="#2A2A2A"/>
<path d="M84.3314 121.542V124.912H82.9951V117.052H84.3314V120.341H88.1391V117.052H89.4755V124.912H88.1391V121.542H84.3314Z" fill="#2A2A2A"/>
<path d="M95.0629 117.052V120.187C96.1979 120.187 96.8581 120.187 97.0513 120.187C97.6624 120.201 98.2573 120.388 98.766 120.728C99.0204 120.943 99.2195 121.217 99.347 121.525C99.4743 121.834 99.5263 122.169 99.4986 122.501C99.5257 122.851 99.4663 123.202 99.326 123.525C99.1856 123.847 98.9685 124.129 98.6935 124.348C98.097 124.729 97.3963 124.915 96.689 124.879H93.7588V117.02L95.0629 117.052ZM95.0629 121.405V123.702H96.5603C97.6229 123.702 98.1703 123.315 98.1703 122.533C98.1703 121.752 97.6389 121.405 96.5603 121.405H95.0629ZM101.672 124.912H100.344V117.052H101.672V124.912Z" fill="#2A2A2A"/>
<path d="M107.17 124.911H105.898V117.067H107.235V122.871L111.462 117.067H112.741V124.911H111.397V119.091L107.17 124.911ZM107.339 114.504H108.306C108.297 114.815 108.391 115.121 108.571 115.375C108.656 115.495 108.77 115.592 108.902 115.657C109.034 115.722 109.181 115.752 109.328 115.745C109.485 115.762 109.643 115.734 109.785 115.666C109.927 115.598 110.048 115.491 110.133 115.358C110.309 115.109 110.397 114.808 110.382 114.504H111.348C111.362 115.059 111.171 115.599 110.809 116.019C110.633 116.233 110.41 116.404 110.157 116.519C109.904 116.634 109.629 116.688 109.352 116.68C109.083 116.684 108.816 116.626 108.572 116.512C108.328 116.397 108.113 116.229 107.943 116.019C107.562 115.606 107.347 115.066 107.339 114.504Z" fill="#2A2A2A"/>
<path d="M125.098 124.912H123.778V117.052H125.098V120.744L125.179 120.647V120.76L128.495 117.052H130.017L126.685 120.776L130.09 124.912H128.375L125.155 120.881V121.034L125.074 120.913L125.098 124.912Z" fill="#2A2A2A"/>
<path d="M140.755 120.881C140.768 121.991 140.339 123.061 139.564 123.855C139.2 124.26 138.755 124.584 138.256 124.804C137.758 125.023 137.218 125.135 136.673 125.129C136.133 125.136 135.597 125.032 135.098 124.822C134.6 124.613 134.149 124.303 133.776 123.911C133.391 123.529 133.087 123.073 132.882 122.57C132.677 122.067 132.576 121.529 132.585 120.986C132.579 119.888 133.001 118.834 133.759 118.043C134.113 117.639 134.55 117.317 135.039 117.097C135.528 116.878 136.058 116.766 136.593 116.77C137.137 116.766 137.674 116.873 138.175 117.083C138.677 117.294 139.13 117.604 139.507 117.995C139.906 118.361 140.222 118.808 140.437 119.305C140.652 119.801 140.761 120.339 140.755 120.881ZM133.978 120.977C133.962 121.718 134.237 122.435 134.741 122.976C134.989 123.239 135.287 123.449 135.618 123.593C135.948 123.735 136.305 123.81 136.666 123.81C137.026 123.81 137.383 123.735 137.713 123.593C138.045 123.449 138.343 123.239 138.59 122.976C139.092 122.425 139.369 121.707 139.369 120.961C139.369 120.215 139.092 119.497 138.59 118.946C138.341 118.68 138.04 118.469 137.703 118.331C137.367 118.191 137.005 118.127 136.641 118.14C136.284 118.127 135.928 118.192 135.599 118.332C135.269 118.471 134.974 118.681 134.734 118.946C134.227 119.498 133.956 120.227 133.978 120.977Z" fill="#2A2A2A"/>
<path d="M149.465 124.912H148.291L145.779 119.164V124.912H144.49V117.052H146.254L148.87 123.396L151.47 117.052H153.234V124.912H151.945V119.164L149.465 124.912Z" fill="#2A2A2A"/>
<path d="M158.805 118.262V124.912H157.477V117.052H163.796V124.912H162.467V118.262H158.805Z" fill="#2A2A2A"/>
<path d="M170.615 119.003L168.586 124.912H167.153L170.06 117.052H171.194L174.101 124.912H172.667L170.615 119.003Z" fill="#2A2A2A"/>
<path d="M183.35 122.493H184.847C184.61 123.126 184.215 123.69 183.703 124.131C183.191 124.572 182.576 124.876 181.916 125.016C181.255 125.157 180.57 125.129 179.923 124.935C179.276 124.74 178.688 124.386 178.214 123.905C177.456 123.118 177.033 122.067 177.033 120.974C177.033 119.882 177.456 118.831 178.214 118.044C178.579 117.65 179.023 117.338 179.516 117.126C180.011 116.916 180.543 116.811 181.08 116.819C181.909 116.8 182.724 117.045 183.406 117.52C184.077 118.006 184.574 118.695 184.823 119.487C185.036 120.123 185.137 120.792 185.121 121.462H178.438C178.545 122.116 178.868 122.715 179.357 123.162C179.586 123.384 179.857 123.558 180.154 123.675C180.452 123.791 180.769 123.847 181.088 123.84C181.552 123.849 182.011 123.727 182.41 123.49C182.81 123.251 183.135 122.907 183.35 122.493ZM181.112 118.14C180.504 118.128 179.911 118.33 179.437 118.713C178.963 119.115 178.623 119.652 178.463 120.253H183.712C183.609 119.644 183.288 119.094 182.809 118.705C182.331 118.317 181.728 118.117 181.112 118.14Z" fill="#2A2A2A"/>
<path d="M190.224 124.912H188.903V117.052H190.224V120.744L190.296 120.647V120.76L193.621 117.052H195.142L191.81 120.776L195.215 124.912H193.501L190.281 120.881V121.034L190.208 120.913L190.224 124.912Z" fill="#2A2A2A"/>
<path d="M204.4 122.291H205.865C205.651 123.129 205.156 123.868 204.462 124.384C203.77 124.9 202.921 125.164 202.058 125.129C201.516 125.146 200.976 125.049 200.474 124.842C199.972 124.637 199.518 124.328 199.143 123.936C198.4 123.129 197.987 122.072 197.987 120.973C197.987 119.875 198.4 118.818 199.143 118.011C199.53 117.625 199.989 117.322 200.496 117.12C201.003 116.917 201.545 116.82 202.091 116.834C202.927 116.811 203.748 117.065 204.425 117.559C205.094 118.075 205.588 118.784 205.841 119.591H204.4C204.203 119.123 203.863 118.73 203.429 118.467C202.996 118.204 202.49 118.083 201.986 118.123C201.634 118.111 201.283 118.176 200.96 118.316C200.637 118.456 200.35 118.665 200.117 118.929C199.634 119.482 199.374 120.195 199.385 120.929C199.366 121.669 199.628 122.389 200.117 122.945C200.352 123.227 200.649 123.452 200.984 123.603C201.318 123.754 201.683 123.827 202.049 123.814C202.556 123.862 203.063 123.737 203.489 123.461C203.916 123.184 204.236 122.773 204.4 122.291Z" fill="#2A2A2A"/>
</g>
<defs>
<clipPath id="clip0_1664_257">
<rect width="206" height="126" fill="white"/>
</clipPath>
</defs>
</svg>
