<svg width="129" height="53" viewBox="0 0 129 53" fill="none" xmlns="http://www.w3.org/2000/svg">
<path d="M9.42503 18C8.05833 18 6.8 17.7833 5.65 17.35C4.51666 16.9 3.525 16.275 2.675 15.475C1.825 14.6583 1.16666 13.7 0.7 12.6C0.23333 11.5 0 10.3 0 9C0 7.7 0.23333 6.5 0.7 5.4C1.16666 4.3 1.825 3.35 2.675 2.55C3.54166 1.73333 4.55 1.10833 5.7 0.675C6.85 0.225 8.10833 0 9.47503 0C10.9583 0 12.2916 0.24167 13.475 0.725C14.675 1.20833 15.6833 1.91667 16.5 2.85L14.45 4.85C13.7666 4.1667 13.025 3.66667 12.225 3.35C11.4416 3.01667 10.575 2.85 9.62503 2.85C8.70833 2.85 7.85833 3 7.075 3.3C6.29166 3.6 5.61666 4.025 5.05 4.575C4.48333 5.125 4.04166 5.775 3.725 6.525C3.425 7.275 3.275 8.1 3.275 9C3.275 9.8833 3.425 10.7 3.725 11.45C4.04166 12.2 4.48333 12.8583 5.05 13.425C5.61666 13.975 6.28333 14.4 7.05 14.7C7.81666 15 8.66666 15.15 9.60003 15.15C10.4666 15.15 11.3 15.0167 12.1 14.75C12.9166 14.4667 13.6916 14 14.425 13.35L16.275 15.775C15.3583 16.5083 14.2916 17.0667 13.075 17.45C11.875 17.8167 10.6583 18 9.42503 18ZM13.2 15.35V8.8H16.275V15.775L13.2 15.35ZM32.5115 18C31.1448 18 29.8865 17.775 28.7365 17.325C27.5865 16.875 26.5865 16.25 25.7365 15.45C24.8865 14.6333 24.2282 13.6833 23.7615 12.6C23.2948 11.5 23.0615 10.3 23.0615 9C23.0615 7.7 23.2948 6.5083 23.7615 5.425C24.2282 4.325 24.8865 3.375 25.7365 2.575C26.5865 1.75833 27.5865 1.125 28.7365 0.675C29.8865 0.225 31.1365 0 32.4865 0C33.8532 0 35.1032 0.225 36.2365 0.675C37.3865 1.125 38.3865 1.75833 39.2365 2.575C40.0865 3.375 40.7448 4.325 41.2115 5.425C41.6782 6.5083 41.9115 7.7 41.9115 9C41.9115 10.3 41.6782 11.5 41.2115 12.6C40.7448 13.7 40.0865 14.65 39.2365 15.45C38.3865 16.25 37.3865 16.875 36.2365 17.325C35.1032 17.775 33.8615 18 32.5115 18ZM32.4865 15.15C33.3698 15.15 34.1865 15 34.9365 14.7C35.6865 14.4 36.3365 13.975 36.8865 13.425C37.4365 12.8583 37.8615 12.2083 38.1615 11.475C38.4782 10.725 38.6365 9.9 38.6365 9C38.6365 8.1 38.4782 7.2833 38.1615 6.55C37.8615 5.8 37.4365 5.15 36.8865 4.6C36.3365 4.0333 35.6865 3.6 34.9365 3.3C34.1865 3 33.3698 2.85 32.4865 2.85C31.6032 2.85 30.7865 3 30.0365 3.3C29.3032 3.6 28.6532 4.0333 28.0865 4.6C27.5365 5.15 27.1032 5.8 26.7865 6.55C26.4865 7.2833 26.3365 8.1 26.3365 9C26.3365 9.8833 26.4865 10.7 26.7865 11.45C27.1032 12.2 27.5365 12.8583 28.0865 13.425C28.6365 13.975 29.2865 14.4 30.0365 14.7C30.7865 15 31.6032 15.15 32.4865 15.15ZM49.1064 17.75V0.25H52.3564V15H61.5064V17.75H49.1064ZM67.8222 17.75V0.25H75.4722C77.3722 0.25 79.0389 0.61667 80.4722 1.35C81.9056 2.08333 83.0222 3.1 83.8222 4.4C84.6222 5.7 85.0222 7.2333 85.0222 9C85.0222 10.75 84.6222 12.2833 83.8222 13.6C83.0222 14.9 81.9056 15.9167 80.4722 16.65C79.0389 17.3833 77.3722 17.75 75.4722 17.75H67.8222ZM71.0722 15H75.3222C76.6389 15 77.7722 14.75 78.7222 14.25C79.6889 13.75 80.4306 13.05 80.9472 12.15C81.4806 11.25 81.7472 10.2 81.7472 9C81.7472 7.7833 81.4806 6.7333 80.9472 5.85C80.4306 4.95 79.6889 4.25 78.7222 3.75C77.7722 3.25 76.6389 3 75.3222 3H71.0722V15ZM95.2265 7.525H103.927V10.2H95.2265V7.525ZM95.4765 15.025H105.352V17.75H92.2265V0.25H105.002V2.975H95.4765V15.025ZM112.725 17.75V0.25H115.4L126.375 13.725H125.05V0.25H128.275V17.75H125.6L114.625 4.275H115.95V17.75H112.725Z" fill="white"/>
<path d="M5.46973 37.75V20.25H13.6697C15.7697 20.25 17.3697 20.6667 18.4697 21.5C19.5697 22.3167 20.1197 23.4167 20.1197 24.8C20.1197 25.7333 19.903 26.5333 19.4697 27.2C19.0364 27.85 18.453 28.3583 17.7197 28.725C17.003 29.075 16.2197 29.25 15.3697 29.25L15.8197 28.35C16.803 28.35 17.6864 28.5333 18.4697 28.9C19.253 29.25 19.8697 29.7667 20.3197 30.45C20.7864 31.1333 21.0197 31.9833 21.0197 33C21.0197 34.5 20.4447 35.6667 19.2947 36.5C18.1447 37.3333 16.4364 37.75 14.1697 37.75H5.46973ZM8.71973 35.2H13.9697C15.1864 35.2 16.1197 35 16.7697 34.6C17.4197 34.2 17.7447 33.5583 17.7447 32.675C17.7447 31.8083 17.4197 31.175 16.7697 30.775C16.1197 30.3583 15.1864 30.15 13.9697 30.15H8.46973V27.625H13.3197C14.453 27.625 15.3197 27.425 15.9197 27.025C16.5364 26.625 16.8447 26.025 16.8447 25.225C16.8447 24.4083 16.5364 23.8 15.9197 23.4C15.3197 23 14.453 22.8 13.3197 22.8H8.71973V35.2ZM28.2382 37.75V20.25H35.4382C36.9882 20.25 38.3132 20.5 39.4132 21C40.5299 21.5 41.3882 22.2167 41.9882 23.15C42.5882 24.0833 42.8882 25.1917 42.8882 26.475C42.8882 27.7583 42.5882 28.8667 41.9882 29.8C41.3882 30.7167 40.5299 31.425 39.4132 31.925C38.3132 32.4083 36.9882 32.65 35.4382 32.65H30.0382L31.4882 31.175V37.75H28.2382ZM39.6882 37.75L35.2632 31.4H38.7382L43.1882 37.75H39.6882ZM31.4882 31.525L30.0382 29.975H35.2882C36.7216 29.975 37.7966 29.6667 38.5132 29.05C39.2466 28.4333 39.6132 27.575 39.6132 26.475C39.6132 25.3583 39.2466 24.5 38.5132 23.9C37.7966 23.3 36.7216 23 35.2882 23H30.0382L31.4882 21.4V31.525ZM58.4744 38C57.1077 38 55.8494 37.775 54.6994 37.325C53.5494 36.875 52.5494 36.25 51.6994 35.45C50.8494 34.6333 50.191 33.6833 49.7244 32.6C49.2577 31.5 49.0244 30.3 49.0244 29C49.0244 27.7 49.2577 26.5083 49.7244 25.425C50.191 24.325 50.8494 23.375 51.6994 22.575C52.5494 21.7583 53.5494 21.125 54.6994 20.675C55.8494 20.225 57.0994 20 58.4494 20C59.816 20 61.066 20.225 62.1994 20.675C63.3494 21.125 64.3494 21.7583 65.1994 22.575C66.0494 23.375 66.7077 24.325 67.1744 25.425C67.641 26.5083 67.8744 27.7 67.8744 29C67.8744 30.3 67.641 31.5 67.1744 32.6C66.7077 33.7 66.0494 34.65 65.1994 35.45C64.3494 36.25 63.3494 36.875 62.1994 37.325C61.066 37.775 59.8244 38 58.4744 38ZM58.4494 35.15C59.3327 35.15 60.1494 35 60.8994 34.7C61.6494 34.4 62.2994 33.975 62.8494 33.425C63.3994 32.8583 63.8244 32.2083 64.1244 31.475C64.441 30.725 64.5994 29.9 64.5994 29C64.5994 28.1 64.441 27.2833 64.1244 26.55C63.8244 25.8 63.3994 25.15 62.8494 24.6C62.2994 24.0333 61.6494 23.6 60.8994 23.3C60.1494 23 59.3327 22.85 58.4494 22.85C57.566 22.85 56.7494 23 55.9994 23.3C55.266 23.6 54.616 24.0333 54.0494 24.6C53.4994 25.15 53.066 25.8 52.7494 26.55C52.4494 27.2833 52.2994 28.1 52.2994 29C52.2994 29.8833 52.4494 30.7 52.7494 31.45C53.066 32.2 53.4994 32.8583 54.0494 33.425C54.5994 33.975 55.2494 34.4 55.9994 34.7C56.7494 35 57.566 35.15 58.4494 35.15ZM78.6572 37.75L72.8572 20.25H76.2322L81.4072 36.075H79.7322L85.1072 20.25H88.1072L93.3322 36.075H91.7072L97.0072 20.25H100.107L94.3072 37.75H90.8572L86.0822 23.475H86.9822L82.1322 37.75H78.6572ZM106.505 37.75V20.25H109.18L120.155 33.725H118.83V20.25H122.055V37.75H119.38L108.405 24.275H109.73V37.75H106.505Z" fill="white"/>
<path d="M11.0289 49.75V43.486H11.6289V49.75H11.0289ZM11.3289 41.962C11.1929 41.962 11.0769 41.914 10.9809 41.818C10.8849 41.722 10.8369 41.61 10.8369 41.482C10.8369 41.346 10.8849 41.23 10.9809 41.134C11.0769 41.038 11.1929 40.99 11.3289 40.99C11.4729 40.99 11.5889 41.038 11.6769 41.134C11.7729 41.222 11.8209 41.334 11.8209 41.47C11.8209 41.606 11.7729 41.722 11.6769 41.818C11.5889 41.914 11.4729 41.962 11.3289 41.962ZM16.6178 43.438C17.1298 43.438 17.5738 43.538 17.9498 43.738C18.3338 43.93 18.6298 44.226 18.8378 44.626C19.0538 45.018 19.1618 45.506 19.1618 46.09V49.75H18.5618V46.138C18.5618 45.434 18.3818 44.898 18.0218 44.53C17.6698 44.162 17.1738 43.978 16.5338 43.978C16.0458 43.978 15.6218 44.078 15.2618 44.278C14.9018 44.478 14.6258 44.758 14.4338 45.118C14.2498 45.478 14.1578 45.91 14.1578 46.414V49.75H13.5578V43.486H14.1338V45.226L14.0498 45.034C14.2418 44.538 14.5578 44.15 14.9978 43.87C15.4378 43.582 15.9778 43.438 16.6178 43.438ZM23.516 49.798C22.908 49.798 22.364 49.662 21.884 49.39C21.412 49.118 21.036 48.742 20.756 48.262C20.484 47.782 20.348 47.234 20.348 46.618C20.348 45.994 20.484 45.442 20.756 44.962C21.036 44.482 21.412 44.11 21.884 43.846C22.364 43.574 22.908 43.438 23.516 43.438C24.02 43.438 24.476 43.534 24.884 43.726C25.3 43.918 25.636 44.206 25.892 44.59L25.448 44.914C25.224 44.594 24.944 44.358 24.608 44.206C24.272 44.054 23.908 43.978 23.516 43.978C23.028 43.978 22.588 44.09 22.196 44.314C21.812 44.53 21.508 44.838 21.284 45.238C21.068 45.63 20.96 46.09 20.96 46.618C20.96 47.146 21.068 47.61 21.284 48.01C21.508 48.402 21.812 48.71 22.196 48.934C22.588 49.15 23.028 49.258 23.516 49.258C23.908 49.258 24.272 49.182 24.608 49.03C24.944 48.878 25.224 48.642 25.448 48.322L25.892 48.646C25.636 49.03 25.3 49.318 24.884 49.51C24.476 49.702 24.02 49.798 23.516 49.798ZM29.4308 49.798C28.8308 49.798 28.2948 49.662 27.8228 49.39C27.3588 49.118 26.9868 48.742 26.7068 48.262C26.4348 47.782 26.2988 47.234 26.2988 46.618C26.2988 45.994 26.4348 45.446 26.7068 44.974C26.9868 44.494 27.3588 44.118 27.8228 43.846C28.2948 43.574 28.8308 43.438 29.4308 43.438C30.0308 43.438 30.5668 43.574 31.0388 43.846C31.5108 44.118 31.8828 44.494 32.1548 44.974C32.4268 45.446 32.5628 45.994 32.5628 46.618C32.5628 47.234 32.4268 47.782 32.1548 48.262C31.8828 48.742 31.5108 49.118 31.0388 49.39C30.5668 49.662 30.0308 49.798 29.4308 49.798ZM29.4308 49.258C29.9108 49.258 30.3428 49.15 30.7268 48.934C31.1108 48.71 31.4108 48.398 31.6268 47.998C31.8428 47.598 31.9508 47.138 31.9508 46.618C31.9508 46.09 31.8428 45.63 31.6268 45.238C31.4108 44.838 31.1108 44.53 30.7268 44.314C30.3428 44.09 29.9108 43.978 29.4308 43.978C28.9508 43.978 28.5188 44.09 28.1348 44.314C27.7588 44.53 27.4588 44.838 27.2348 45.238C27.0188 45.63 26.9108 46.09 26.9108 46.618C26.9108 47.138 27.0188 47.598 27.2348 47.998C27.4588 48.398 27.7588 48.71 28.1348 48.934C28.5188 49.15 28.9508 49.258 29.4308 49.258ZM41.6242 43.438C42.1282 43.438 42.5642 43.538 42.9322 43.738C43.3082 43.93 43.6002 44.226 43.8082 44.626C44.0162 45.018 44.1202 45.506 44.1202 46.09V49.75H43.5202V46.138C43.5202 45.434 43.3482 44.898 43.0042 44.53C42.6602 44.162 42.1802 43.978 41.5642 43.978C41.0922 43.978 40.6842 44.078 40.3402 44.278C39.9962 44.478 39.7322 44.758 39.5482 45.118C39.3642 45.478 39.2722 45.91 39.2722 46.414V49.75H38.6722V46.138C38.6722 45.434 38.5002 44.898 38.1562 44.53C37.8122 44.162 37.3322 43.978 36.7162 43.978C36.2442 43.978 35.8362 44.078 35.4922 44.278C35.1482 44.478 34.8842 44.758 34.7002 45.118C34.5162 45.478 34.4242 45.91 34.4242 46.414V49.75H33.8242V43.486H34.4002V45.214L34.3162 45.022C34.5002 44.534 34.8082 44.15 35.2402 43.87C35.6722 43.582 36.1922 43.438 36.8002 43.438C37.4242 43.438 37.9482 43.598 38.3722 43.918C38.8042 44.23 39.0762 44.698 39.1882 45.322L38.9842 45.238C39.1522 44.702 39.4682 44.27 39.9322 43.942C40.3962 43.606 40.9602 43.438 41.6242 43.438ZM48.5417 49.798C47.9097 49.798 47.3497 49.662 46.8617 49.39C46.3817 49.118 46.0017 48.742 45.7217 48.262C45.4497 47.782 45.3137 47.234 45.3137 46.618C45.3137 45.994 45.4417 45.446 45.6977 44.974C45.9617 44.494 46.3217 44.118 46.7777 43.846C47.2337 43.574 47.7457 43.438 48.3137 43.438C48.8817 43.438 49.3897 43.57 49.8377 43.834C50.2937 44.098 50.6497 44.47 50.9057 44.95C51.1697 45.422 51.3017 45.97 51.3017 46.594C51.3017 46.618 51.2977 46.646 51.2897 46.678C51.2897 46.702 51.2897 46.73 51.2897 46.762H45.7577V46.294H50.9657L50.7257 46.522C50.7337 46.034 50.6297 45.598 50.4137 45.214C50.2057 44.822 49.9217 44.518 49.5617 44.302C49.2017 44.078 48.7857 43.966 48.3137 43.966C47.8497 43.966 47.4337 44.078 47.0657 44.302C46.7057 44.518 46.4217 44.822 46.2137 45.214C46.0057 45.598 45.9017 46.038 45.9017 46.534V46.642C45.9017 47.154 46.0137 47.61 46.2377 48.01C46.4697 48.402 46.7857 48.71 47.1857 48.934C47.5857 49.15 48.0417 49.258 48.5537 49.258C48.9537 49.258 49.3257 49.186 49.6697 49.042C50.0217 48.898 50.3177 48.678 50.5577 48.382L50.9057 48.778C50.6337 49.114 50.2897 49.37 49.8737 49.546C49.4657 49.714 49.0217 49.798 48.5417 49.798ZM58.9878 49.75V48.322L58.9638 48.106V45.754C58.9638 45.17 58.8038 44.726 58.4838 44.422C58.1718 44.118 57.7118 43.966 57.1038 43.966C56.6718 43.966 56.2678 44.042 55.8918 44.194C55.5238 44.338 55.2078 44.526 54.9438 44.758L54.6438 44.326C54.9558 44.046 55.3318 43.83 55.7718 43.678C56.2118 43.518 56.6718 43.438 57.1518 43.438C57.9278 43.438 58.5238 43.634 58.9398 44.026C59.3558 44.418 59.5638 45.002 59.5638 45.778V49.75H58.9878ZM56.7318 49.798C56.2678 49.798 55.8638 49.726 55.5198 49.582C55.1838 49.43 54.9238 49.218 54.7398 48.946C54.5638 48.674 54.4758 48.362 54.4758 48.01C54.4758 47.69 54.5478 47.402 54.6918 47.146C54.8438 46.882 55.0918 46.67 55.4358 46.51C55.7798 46.342 56.2398 46.258 56.8158 46.258H59.1198V46.726H56.8278C56.1798 46.726 55.7238 46.846 55.4598 47.086C55.2038 47.326 55.0758 47.626 55.0758 47.986C55.0758 48.386 55.2278 48.706 55.5318 48.946C55.8358 49.186 56.2638 49.306 56.8158 49.306C57.3438 49.306 57.7878 49.186 58.1478 48.946C58.5158 48.706 58.7878 48.358 58.9638 47.902L59.1318 48.31C58.9638 48.766 58.6758 49.13 58.2678 49.402C57.8678 49.666 57.3558 49.798 56.7318 49.798ZM64.5799 49.798C64.0279 49.798 63.5279 49.67 63.0799 49.414C62.6399 49.158 62.2879 48.794 62.0239 48.322C61.7679 47.842 61.6399 47.274 61.6399 46.618C61.6399 45.962 61.7679 45.398 62.0239 44.926C62.2879 44.446 62.6399 44.078 63.0799 43.822C63.5279 43.566 64.0279 43.438 64.5799 43.438C65.1719 43.438 65.6999 43.574 66.1639 43.846C66.6359 44.11 67.0039 44.482 67.2679 44.962C67.5399 45.442 67.6759 45.994 67.6759 46.618C67.6759 47.242 67.5399 47.794 67.2679 48.274C67.0039 48.754 66.6359 49.13 66.1639 49.402C65.6999 49.666 65.1719 49.798 64.5799 49.798ZM61.4359 52.078V43.486H62.0119V45.538L61.9159 46.63L62.0359 47.722V52.078H61.4359ZM64.5439 49.258C65.0239 49.258 65.4559 49.15 65.8399 48.934C66.2239 48.71 66.5239 48.398 66.7399 47.998C66.9639 47.598 67.0759 47.138 67.0759 46.618C67.0759 46.09 66.9639 45.63 66.7399 45.238C66.5239 44.838 66.2239 44.53 65.8399 44.314C65.4559 44.09 65.0239 43.978 64.5439 43.978C64.0639 43.978 63.6319 44.09 63.2479 44.314C62.8719 44.53 62.5719 44.838 62.3479 45.238C62.1319 45.63 62.0239 46.09 62.0239 46.618C62.0239 47.138 62.1319 47.598 62.3479 47.998C62.5719 48.398 62.8719 48.71 63.2479 48.934C63.6319 49.15 64.0639 49.258 64.5439 49.258ZM72.8581 49.75V48.322L72.8341 48.106V45.754C72.8341 45.17 72.6741 44.726 72.3541 44.422C72.0421 44.118 71.5821 43.966 70.9741 43.966C70.5421 43.966 70.1381 44.042 69.7621 44.194C69.3941 44.338 69.0781 44.526 68.8141 44.758L68.5141 44.326C68.8261 44.046 69.2021 43.83 69.6421 43.678C70.0821 43.518 70.5421 43.438 71.0221 43.438C71.7981 43.438 72.3941 43.634 72.8101 44.026C73.2261 44.418 73.4341 45.002 73.4341 45.778V49.75H72.8581ZM70.6021 49.798C70.1381 49.798 69.7341 49.726 69.3901 49.582C69.0541 49.43 68.7941 49.218 68.6101 48.946C68.4341 48.674 68.3461 48.362 68.3461 48.01C68.3461 47.69 68.4181 47.402 68.5621 47.146C68.7141 46.882 68.9621 46.67 69.3061 46.51C69.6501 46.342 70.1101 46.258 70.6861 46.258H72.9901V46.726H70.6981C70.0501 46.726 69.5941 46.846 69.3301 47.086C69.0741 47.326 68.9461 47.626 68.9461 47.986C68.9461 48.386 69.0981 48.706 69.4021 48.946C69.7061 49.186 70.1341 49.306 70.6861 49.306C71.2141 49.306 71.6581 49.186 72.0181 48.946C72.3861 48.706 72.6581 48.358 72.8341 47.902L73.0021 48.31C72.8341 48.766 72.5461 49.13 72.1381 49.402C71.7381 49.666 71.2261 49.798 70.6021 49.798ZM75.3062 49.75V43.486H75.8822V45.202L75.8222 45.01C75.9982 44.506 76.2942 44.118 76.7102 43.846C77.1262 43.574 77.6462 43.438 78.2702 43.438V44.026C78.2462 44.026 78.2222 44.026 78.1982 44.026C78.1742 44.018 78.1502 44.014 78.1262 44.014C77.4302 44.014 76.8862 44.234 76.4942 44.674C76.1022 45.106 75.9062 45.71 75.9062 46.486V49.75H75.3062ZM81.4287 49.798C80.8767 49.798 80.4527 49.646 80.1567 49.342C79.8687 49.038 79.7247 48.622 79.7247 48.094V42.118H80.3247V48.034C80.3247 48.434 80.4247 48.742 80.6247 48.958C80.8247 49.174 81.1127 49.282 81.4887 49.282C81.8807 49.282 82.2047 49.166 82.4607 48.934L82.7127 49.354C82.5527 49.506 82.3567 49.618 82.1247 49.69C81.9007 49.762 81.6687 49.798 81.4287 49.798ZM78.5727 44.002V43.486H82.3167V44.002H78.5727ZM91.5859 43.438C92.0899 43.438 92.5259 43.538 92.8939 43.738C93.2699 43.93 93.5619 44.226 93.7699 44.626C93.9779 45.018 94.0819 45.506 94.0819 46.09V49.75H93.4819V46.138C93.4819 45.434 93.3099 44.898 92.9659 44.53C92.6219 44.162 92.1419 43.978 91.5259 43.978C91.0539 43.978 90.6459 44.078 90.3019 44.278C89.9579 44.478 89.6939 44.758 89.5099 45.118C89.3259 45.478 89.2339 45.91 89.2339 46.414V49.75H88.6339V46.138C88.6339 45.434 88.4619 44.898 88.1179 44.53C87.7739 44.162 87.2939 43.978 86.6779 43.978C86.2059 43.978 85.7979 44.078 85.4539 44.278C85.1099 44.478 84.8459 44.758 84.6619 45.118C84.4779 45.478 84.3859 45.91 84.3859 46.414V49.75H83.7859V43.486H84.3619V45.214L84.2779 45.022C84.4619 44.534 84.7699 44.15 85.2019 43.87C85.6339 43.582 86.1539 43.438 86.7619 43.438C87.3859 43.438 87.9099 43.598 88.3339 43.918C88.7659 44.23 89.0379 44.698 89.1499 45.322L88.9459 45.238C89.1139 44.702 89.4299 44.27 89.8939 43.942C90.3579 43.606 90.9219 43.438 91.5859 43.438ZM98.5034 49.798C97.8714 49.798 97.3114 49.662 96.8234 49.39C96.3434 49.118 95.9634 48.742 95.6834 48.262C95.4114 47.782 95.2754 47.234 95.2754 46.618C95.2754 45.994 95.4034 45.446 95.6594 44.974C95.9234 44.494 96.2834 44.118 96.7394 43.846C97.1954 43.574 97.7074 43.438 98.2754 43.438C98.8429 43.438 99.3509 43.57 99.7989 43.834C100.255 44.098 100.611 44.47 100.867 44.95C101.131 45.422 101.263 45.97 101.263 46.594C101.263 46.618 101.259 46.646 101.251 46.678C101.251 46.702 101.251 46.73 101.251 46.762H95.7194V46.294H100.927L100.687 46.522C100.695 46.034 100.591 45.598 100.375 45.214C100.167 44.822 99.8829 44.518 99.5229 44.302C99.1629 44.078 98.7474 43.966 98.2754 43.966C97.8114 43.966 97.3954 44.078 97.0274 44.302C96.6674 44.518 96.3834 44.822 96.1754 45.214C95.9674 45.598 95.8634 46.038 95.8634 46.534V46.642C95.8634 47.154 95.9754 47.61 96.1994 48.01C96.4314 48.402 96.7474 48.71 97.1474 48.934C97.5474 49.15 98.0034 49.258 98.5154 49.258C98.9149 49.258 99.2869 49.186 99.6309 49.042C99.9829 48.898 100.279 48.678 100.519 48.382L100.867 48.778C100.595 49.114 100.251 49.37 99.8349 49.546C99.4269 49.714 98.9829 49.798 98.5034 49.798ZM105.58 43.438C106.092 43.438 106.536 43.538 106.912 43.738C107.296 43.93 107.592 44.226 107.8 44.626C108.016 45.018 108.124 45.506 108.124 46.09V49.75H107.524V46.138C107.524 45.434 107.344 44.898 106.984 44.53C106.632 44.162 106.136 43.978 105.496 43.978C105.008 43.978 104.584 44.078 104.224 44.278C103.864 44.478 103.588 44.758 103.396 45.118C103.212 45.478 103.12 45.91 103.12 46.414V49.75H102.52V43.486H103.096V45.226L103.012 45.034C103.204 44.538 103.52 44.15 103.96 43.87C104.4 43.582 104.94 43.438 105.58 43.438ZM111.818 49.798C111.266 49.798 110.842 49.646 110.546 49.342C110.258 49.038 110.114 48.622 110.114 48.094V42.118H110.714V48.034C110.714 48.434 110.814 48.742 111.014 48.958C111.214 49.174 111.502 49.282 111.878 49.282C112.27 49.282 112.594 49.166 112.85 48.934L113.102 49.354C112.942 49.506 112.746 49.618 112.514 49.69C112.29 49.762 112.058 49.798 111.818 49.798ZM108.962 44.002V43.486H112.706V44.002H108.962ZM115.759 49.798C115.239 49.798 114.751 49.722 114.295 49.57C113.847 49.418 113.499 49.226 113.251 48.994L113.527 48.514C113.767 48.722 114.087 48.902 114.487 49.054C114.887 49.198 115.319 49.27 115.783 49.27C116.439 49.27 116.911 49.162 117.199 48.946C117.487 48.73 117.631 48.446 117.631 48.094C117.631 47.838 117.555 47.638 117.403 47.494C117.259 47.342 117.063 47.226 116.815 47.146C116.567 47.066 116.295 47.002 115.999 46.954C115.703 46.898 115.407 46.838 115.111 46.774C114.815 46.71 114.543 46.618 114.295 46.498C114.047 46.378 113.847 46.214 113.695 46.006C113.551 45.79 113.479 45.506 113.479 45.154C113.479 44.834 113.567 44.546 113.743 44.29C113.919 44.034 114.183 43.83 114.535 43.678C114.887 43.518 115.327 43.438 115.855 43.438C116.247 43.438 116.639 43.494 117.031 43.606C117.431 43.718 117.755 43.866 118.003 44.05L117.727 44.53C117.463 44.33 117.167 44.186 116.839 44.098C116.511 44.01 116.179 43.966 115.843 43.966C115.235 43.966 114.787 44.078 114.499 44.302C114.219 44.526 114.079 44.806 114.079 45.142C114.079 45.406 114.151 45.618 114.295 45.778C114.447 45.93 114.647 46.05 114.895 46.138C115.143 46.218 115.415 46.286 115.711 46.342C116.007 46.39 116.303 46.446 116.599 46.51C116.895 46.574 117.167 46.666 117.415 46.786C117.663 46.898 117.859 47.058 118.003 47.266C118.155 47.466 118.231 47.738 118.231 48.082C118.231 48.426 118.135 48.726 117.943 48.982C117.759 49.238 117.483 49.438 117.115 49.582C116.747 49.726 116.295 49.798 115.759 49.798Z" fill="white"/>
</svg>
