<svg width="30" height="30" viewBox="0 0 30 30" fill="none" xmlns="http://www.w3.org/2000/svg">
<g clip-path="url(#clip0_358_470)">
<path d="M14.6382 2.61791C18.5225 2.61791 18.9825 2.63495 20.5101 2.70309C21.9298 2.76556 22.6964 3.00407 23.2075 3.20282C23.8832 3.46405 24.3716 3.78206 24.877 4.28747C25.3881 4.79855 25.7005 5.28125 25.9617 5.95702C26.1604 6.46811 26.3989 7.24042 26.4614 8.65444C26.5296 10.1877 26.5466 10.6477 26.5466 14.5263C26.5466 18.4106 26.5296 18.8705 26.4614 20.3981C26.3989 21.8178 26.1604 22.5844 25.9617 23.0955C25.7005 23.7713 25.3824 24.2597 24.877 24.7651C24.3659 25.2762 23.8832 25.5885 23.2075 25.8497C22.6964 26.0485 21.9241 26.287 20.5101 26.3495C18.9768 26.4176 18.5168 26.4346 14.6382 26.4346C10.7539 26.4346 10.294 26.4176 8.76638 26.3495C7.34669 26.287 6.58006 26.0485 6.06897 25.8497C5.39319 25.5885 4.90482 25.2705 4.39941 24.7651C3.88832 24.254 3.57599 23.7713 3.31477 23.0955C3.11601 22.5844 2.8775 21.8121 2.81504 20.3981C2.74689 18.8649 2.72985 18.4049 2.72985 14.5263C2.72985 10.642 2.74689 10.182 2.81504 8.65444C2.8775 7.23474 3.11601 6.46811 3.31477 5.95702C3.57599 5.28125 3.894 4.79288 4.39941 4.28747C4.9105 3.77638 5.39319 3.46405 6.06897 3.20282C6.58006 3.00407 7.35237 2.76556 8.76638 2.70309C10.294 2.63495 10.7539 2.61791 14.6382 2.61791ZM14.6382 0C10.6915 0 10.1974 0.0170363 8.64713 0.0851815C7.1025 0.153327 6.04057 0.403192 5.12061 0.760954C4.1609 1.13575 3.34884 1.62981 2.54245 2.44187C1.73039 3.24825 1.23634 4.06032 0.86154 5.01435C0.503778 5.93999 0.253913 6.99624 0.185767 8.54086C0.117622 10.0968 0.100586 10.5909 0.100586 14.5376C0.100586 18.4844 0.117622 18.9784 0.185767 20.5287C0.253913 22.0734 0.503778 23.1353 0.86154 24.0552C1.23634 25.015 1.73039 25.827 2.54245 26.6334C3.34884 27.4398 4.1609 27.9395 5.11493 28.3086C6.04057 28.6664 7.09682 28.9163 8.64145 28.9844C10.1917 29.0526 10.6858 29.0696 14.6325 29.0696C18.5793 29.0696 19.0733 29.0526 20.6236 28.9844C22.1683 28.9163 23.2302 28.6664 24.1502 28.3086C25.1042 27.9395 25.9162 27.4398 26.7226 26.6334C27.529 25.827 28.0287 25.015 28.3979 24.0609C28.7556 23.1353 29.0055 22.079 29.0736 20.5344C29.1418 18.9841 29.1588 18.4901 29.1588 14.5433C29.1588 10.5966 29.1418 10.1025 29.0736 8.55222C29.0055 7.00759 28.7556 5.94567 28.3979 5.02571C28.0401 4.06032 27.5461 3.24825 26.734 2.44187C25.9276 1.63548 25.1155 1.13575 24.1615 0.766633C23.2359 0.408871 22.1796 0.159005 20.635 0.0908602C19.079 0.0170363 18.585 0 14.6382 0Z" fill="#161616"/>
<path d="M14.6385 7.07031C10.5157 7.07031 7.1709 10.4151 7.1709 14.5379C7.1709 18.6607 10.5157 22.0055 14.6385 22.0055C18.7613 22.0055 22.106 18.6607 22.106 14.5379C22.106 10.4151 18.7613 7.07031 14.6385 7.07031ZM14.6385 19.3819C11.9638 19.3819 9.79449 17.2126 9.79449 14.5379C9.79449 11.8632 11.9638 9.6939 14.6385 9.6939C17.3132 9.6939 19.4825 11.8632 19.4825 14.5379C19.4825 17.2126 17.3132 19.3819 14.6385 19.3819Z" fill="#161616"/>
<path d="M24.144 6.77463C24.144 7.74003 23.3603 8.51802 22.4006 8.51802C21.4352 8.51802 20.6572 7.73435 20.6572 6.77463C20.6572 5.80924 21.4409 5.03125 22.4006 5.03125C23.3603 5.03125 24.144 5.81492 24.144 6.77463Z" fill="#161616"/>
</g>
<defs>
<clipPath id="clip0_358_470">
<rect width="29.0753" height="29.0753" fill="white" transform="translate(0.100586)"/>
</clipPath>
</defs>
</svg>
