<svg width="5" height="21" viewBox="0 0 5 21" fill="none" xmlns="http://www.w3.org/2000/svg">
<path d="M4.86 7.29129L0.279909 7.92248L0.115907 8.75819L1.01592 8.94073C1.60393 9.09468 1.71994 9.3278 1.59193 9.97218L0.115907 17.5992C-0.272101 19.5719 0.325911 20.5 1.73194 20.5C2.82196 20.5 4.08798 19.9458 4.66199 19.1848L4.838 18.27C4.43799 18.657 3.85398 18.811 3.46597 18.811C2.91596 18.811 2.71596 18.3865 2.85796 17.6388L4.86 7.29129ZM5 2.69925C5 3.28253 4.78928 3.84192 4.4142 4.25436C4.03912 4.6668 3.5304 4.8985 2.99996 4.8985C2.46952 4.8985 1.9608 4.6668 1.58572 4.25436C1.21064 3.84192 0.999923 3.28253 0.999923 2.69925C0.999923 2.11597 1.21064 1.55659 1.58572 1.14415C1.9608 0.731706 2.46952 0.5 2.99996 0.5C3.5304 0.5 4.03912 0.731706 4.4142 1.14415C4.78928 1.55659 5 2.11597 5 2.69925Z" fill="white"/>
</svg>
