<svg width="30" height="30" viewBox="0 0 30 30" fill="none" xmlns="http://www.w3.org/2000/svg">
<g clip-path="url(#clip0_358_467)">
<path d="M15.4126 29.0753C23.4415 29.0753 29.9503 22.5665 29.9503 14.5376C29.9503 6.50872 23.4415 0 15.4126 0C7.38372 0 0.875 6.50872 0.875 14.5376C0.875 22.5665 7.38372 29.0753 15.4126 29.0753Z" fill="url(#paint0_linear_358_467)"/>
<path fill-rule="evenodd" clip-rule="evenodd" d="M7.45545 14.3845C11.6935 12.538 14.5195 11.3208 15.9335 10.7326C19.9707 9.05339 20.8096 8.76169 21.3564 8.75206C21.4767 8.74994 21.7456 8.77974 21.9198 8.92108C22.0668 9.04041 22.1073 9.20162 22.1267 9.31477C22.146 9.42792 22.1701 9.68567 22.151 9.88707C21.9322 12.1858 20.9855 17.7642 20.5039 20.3389C20.3001 21.4283 19.8989 21.7936 19.5104 21.8293C18.6662 21.907 18.0251 21.2714 17.2074 20.7354C15.9279 19.8967 15.2051 19.3746 13.9631 18.5561C12.5278 17.6103 13.4583 17.0904 14.2762 16.2408C14.4903 16.0185 18.21 12.6351 18.282 12.3282C18.291 12.2898 18.2994 12.1467 18.2144 12.0712C18.1294 11.9956 18.0039 12.0215 17.9134 12.042C17.785 12.0712 15.741 13.4222 11.7813 16.0951C11.2011 16.4935 10.6756 16.6876 10.2048 16.6774C9.68569 16.6662 8.68721 16.3839 7.94494 16.1427C7.03452 15.8467 6.31093 15.6902 6.37394 15.1876C6.40676 14.9259 6.76726 14.6581 7.45545 14.3845Z" fill="white"/>
</g>
<defs>
<linearGradient id="paint0_linear_358_467" x1="15.4126" y1="0" x2="15.4126" y2="28.8596" gradientUnits="userSpaceOnUse">
<stop stop-color="#2AABEE"/>
<stop offset="1" stop-color="#229ED9"/>
</linearGradient>
<clipPath id="clip0_358_467">
<rect width="29.0753" height="29.0753" fill="white" transform="translate(0.875)"/>
</clipPath>
</defs>
</svg>
