<svg width="21" height="21" viewBox="0 0 21 21" fill="none" xmlns="http://www.w3.org/2000/svg">
<path d="M20.1589 7.25998C21.4089 6.00998 20.8389 4.54998 20.1589 3.83998L17.1589 0.839978C15.8989 -0.410022 14.4489 0.159978 13.7389 0.839978L12.0389 2.54998H9.4489C7.5489 2.54998 6.4489 3.54998 5.8889 4.69998L1.4489 9.13998V13.14L0.738904 13.84C-0.511096 15.1 0.0589036 16.55 0.738904 17.26L3.7389 20.26C4.2789 20.8 4.8589 21 5.4089 21C6.1189 21 6.7689 20.65 7.1589 20.26L9.8589 17.55H13.4489C15.1489 17.55 16.0089 16.49 16.3189 15.45C17.4489 15.15 18.0689 14.29 18.3189 13.45C19.8689 13.05 20.4489 11.58 20.4489 10.55V7.54998H19.8589L20.1589 7.25998ZM18.4489 10.55C18.4489 11 18.2589 11.55 17.4489 11.55H16.4489V12.55C16.4489 13 16.2589 13.55 15.4489 13.55H14.4489V14.55C14.4489 15 14.2589 15.55 13.4489 15.55H9.0389L5.7589 18.83C5.4489 19.12 5.2689 18.95 5.1589 18.84L2.1689 15.86C1.8789 15.55 2.0489 15.37 2.1589 15.26L3.4489 13.96V9.95998L5.4489 7.95998V9.54998C5.4489 10.76 6.2489 12.55 8.4489 12.55C10.6489 12.55 11.4489 10.76 11.4489 9.54998H18.4489V10.55ZM18.7389 5.83998L17.0389 7.54998H9.4489V9.54998C9.4489 9.99998 9.2589 10.55 8.4489 10.55C7.6389 10.55 7.4489 9.99998 7.4489 9.54998V6.54998C7.4489 6.08998 7.6189 4.54998 9.4489 4.54998H12.8589L15.1389 2.26998C15.4489 1.97998 15.6289 2.14998 15.7389 2.25998L18.7289 5.23998C19.0189 5.54998 18.8489 5.72998 18.7389 5.83998Z" fill="#2A2A2A"/>
</svg>
